<?xml version="1.0" encoding="UTF-8"?><svg id="Layer_1" xmlns="http://www.w3.org/2000/svg" viewBox="0 0 420.52 294.75"><defs><style>.cls-1,.cls-2{fill:none;stroke:#fff;stroke-miterlimit:10;stroke-width:5px;}.cls-3{opacity:.8;}.cls-4{opacity:.45;}.cls-5,.cls-2{opacity:.4;}.cls-6{fill:#fff;stroke-width:0px;}</style></defs><g class="cls-3"><path class="cls-1" d="M417.86,45.4l-38.14,236.75c-1.05,6.52-7.24,10.99-13.76,9.94l-179.99-29c-6.51-1.05-10.99-7.24-9.94-13.75l4.05-25.15,28.75-7.11,24.34-6.03h.01l32.88-8.13,2.74-.68c5.18-1.28,8.76-5.82,9.09-10.89h0c.08-1.2-.02-2.42-.32-3.64l-2.79-11.27-3.96-16-3.44-13.9-1.97-7.98-4.12-16.65-3.47-14.04-3.71-14.99-3.47-14-3.47-14.03-3.59-14.52c-.04-.16-.08-.32-.13-.48-.99-3.42-3.42-6.1-6.47-7.52-2.4-1.11-5.18-1.45-7.93-.77l-20.36,5.04,5.48-34.01c1.05-6.52,7.24-10.99,13.76-9.94l179.99,29c6.52,1.05,10.99,7.24,9.94,13.75Z"/><rect class="cls-1" x="238.36" y="33.52" width="157.94" height="13.17" transform="translate(10.42 -49.96) rotate(9.15)"/><path class="cls-2" d="M394.24,59.17l-15.73,97.61-113.1-18.22-4.12-16.65-3.47-14.04-3.71-14.99-3.47-14-3.47-14.03-3.59-14.52c-.04-.16-.08-.32-.13-.48-.99-3.42-3.42-6.1-6.47-7.52l1.33-8.28,155.93,25.12Z"/><polygon class="cls-1" points="377.31 164.25 375.22 177.25 270.82 160.44 267.38 146.54 377.31 164.25"/><path class="cls-2" d="M375.22,177.25l-15.73,97.62-155.93-25.12,5.27-32.67,24.34-6.03h.01l32.88-8.13,2.74-.68c5.18-1.28,8.76-5.82,9.09-10.89h0c.08-1.2-.02-2.42-.32-3.64l-2.79-11.27-3.96-16,104.4,16.81Z"/><line class="cls-2" x1="243.45" y1="49.85" x2="389.41" y2="73.53"/><line class="cls-2" x1="247.17" y1="64.85" x2="387.15" y2="87.56"/><line class="cls-2" x1="250.64" y1="78.88" x2="385.03" y2="100.7"/><line class="cls-2" x1="254.11" y1="92.88" x2="382.92" y2="113.79"/><line class="cls-2" x1="257.82" y1="107.87" x2="380.66" y2="127.83"/><line class="cls-2" x1="260.29" y1="121.91" x2="378.55" y2="140.96"/><line class="cls-2" x1="274.78" y1="176.44" x2="371.32" y2="192"/><line class="cls-2" x1="369.06" y1="206.03" x2="277.89" y2="191.35"/><line class="cls-2" x1="265.06" y1="202.76" x2="366.95" y2="219.17"/><line class="cls-2" x1="364.83" y1="232.26" x2="233.18" y2="211.05"/><line class="cls-2" x1="209.61" y1="221.66" x2="362.58" y2="246.3"/><line class="cls-2" x1="207.5" y1="234.79" x2="360.46" y2="259.43"/></g><rect class="cls-1" x="16.21" y="66.03" width="248.09" height="165.52" rx="12" ry="12" transform="translate(-31.63 38.04) rotate(-13.9)"/><g class="cls-5"><path class="cls-6" d="M153.42,133.45c8.69-2.15,17.39-4.3,26.08-6.45,13.74-3.4,27.48-6.8,41.22-10.2,3.14-.78,6.28-1.55,9.42-2.33s1.8-5.6-1.33-4.82c-8.69,2.15-17.39,4.3-26.08,6.45-13.74,3.4-27.48,6.8-41.22,10.2-3.14.78-6.28,1.55-9.42,2.33s-1.8,5.6,1.33,4.82h0Z"/></g><g class="cls-4"><path class="cls-6" d="M144.87,79.84c1.18,4.76,2.36,9.52,3.53,14.29l5.6,22.64c.43,1.75.86,3.49,1.3,5.24.77,3.12,5.6,1.8,4.82-1.33-1.18-4.76-2.36-9.52-3.53-14.29l-5.6-22.64c-.43-1.75-.86-3.49-1.3-5.24-.77-3.12-5.6-1.8-4.82,1.33h0Z"/></g><g class="cls-4"><path class="cls-6" d="M161.91,75.63c1.18,4.76,2.36,9.52,3.53,14.29,1.87,7.55,3.73,15.09,5.6,22.64.43,1.75.86,3.49,1.3,5.24.77,3.12,5.6,1.8,4.82-1.33-1.18-4.76-2.36-9.52-3.53-14.29-1.87-7.55-3.73-15.09-5.6-22.64-.43-1.75-.86-3.49-1.3-5.24-.77-3.12-5.6-1.8-4.82,1.33h0Z"/></g><g class="cls-4"><path class="cls-6" d="M200.58,63.72c1.18,4.76,2.36,9.52,3.53,14.29l5.6,22.64c.43,1.75.86,3.49,1.3,5.24.77,3.12,5.6,1.8,4.82-1.33-1.18-4.76-2.36-9.52-3.53-14.29l-5.6-22.64c-.43-1.75-.86-3.49-1.3-5.24-.77-3.12-5.6-1.8-4.82,1.33h0Z"/></g><g class="cls-4"><path class="cls-6" d="M177.87,70.6c1.18,4.76,2.36,9.52,3.53,14.29,1.87,7.55,3.73,15.09,5.6,22.64.43,1.75.86,3.49,1.3,5.24.77,3.12,5.6,1.8,4.82-1.33-1.18-4.76-2.36-9.52-3.53-14.29-1.87-7.55-3.73-15.09-5.6-22.64-.43-1.75-.86-3.49-1.3-5.24-.77-3.12-5.6-1.8-4.82,1.33h0Z"/></g><g class="cls-4"><path class="cls-6" d="M215.01,60.15c1.18,4.76,2.36,9.52,3.53,14.29l5.6,22.64c.43,1.75.86,3.49,1.3,5.24.77,3.12,5.6,1.8,4.82-1.33-1.18-4.76-2.36-9.52-3.53-14.29-1.87-7.55-3.73-15.09-5.6-22.64-.43-1.75-.86-3.49-1.3-5.24-.77-3.12-5.6-1.8-4.82,1.33h0Z"/></g><path class="cls-6" d="M150.11,101.05c1.52,6.16,3.05,12.32,4.57,18.48l.64,2.6c.77,3.12,5.6,1.8,4.82-1.33-1.52-6.16-3.05-12.32-4.57-18.48l-.64-2.6c-.77-3.12-5.6-1.8-4.82,1.33h0Z"/><path class="cls-6" d="M219.46,78.13c1.76,7.1,3.52,14.21,5.27,21.31.25,1,.49,2,.74,3,.77,3.12,5.6,1.8,4.82-1.33-1.76-7.1-3.52-14.21-5.27-21.31-.25-1-.49-2-.74-3-.77-3.12-5.6-1.8-4.82,1.33h0Z"/><path class="cls-6" d="M164.17,84.74c2.4,9.71,4.8,19.41,7.2,29.12.33,1.35.67,2.7,1,4.06.77,3.12,5.6,1.8,4.82-1.33-2.4-9.71-4.8-19.41-7.2-29.12-.33-1.35-.67-2.7-1-4.06-.77-3.12-5.6-1.8-4.82,1.33h0Z"/><path class="cls-6" d="M201.49,67.39c2.78,11.24,5.56,22.47,8.34,33.71l1.2,4.85c.77,3.12,5.6,1.8,4.82-1.33-2.78-11.24-5.56-22.47-8.34-33.71l-1.2-4.85c-.77-3.12-5.6-1.8-4.82,1.33h0Z"/><path class="cls-6" d="M185.98,103.37c.76,3.06,1.52,6.12,2.27,9.19l.32,1.29c.31,1.27,1.81,2.15,3.08,1.75s2.08-1.71,1.75-3.08c-.76-3.06-1.52-6.12-2.27-9.19l-.32-1.29c-.31-1.27-1.81-2.15-3.08-1.75s-2.08,1.71-1.75,3.08h0Z"/><g class="cls-5"><path class="cls-6" d="M154.64,147.43c1.67,6.76,3.35,13.53,5.02,20.29l8.01,32.38c.62,2.49,1.23,4.99,1.85,7.48.33,1.34,1.79,2.06,3.08,1.75,8.59-2.12,17.17-4.25,25.76-6.37l41.1-10.17c3.16-.78,6.32-1.56,9.49-2.35s1.8-5.6-1.33-4.82c-8.59,2.12-17.17,4.25-25.76,6.37l-41.1,10.17c-3.16.78-6.32,1.56-9.49,2.35l3.08,1.75c-1.67-6.76-3.35-13.53-5.02-20.29-2.67-10.79-5.34-21.58-8.01-32.38-.62-2.49-1.23-4.99-1.85-7.48-.77-3.12-5.6-1.8-4.82,1.33h0Z"/></g><path class="cls-6" d="M182.15,195.16c2.26-7.53,4.52-15.05,6.79-22.58l.98-3.26-3.08,1.75c4.11,1.23,8.21,2.47,12.32,3.7,1.73.52,3.46,1.13,5.21,1.57s2.94-.82,4.23-1.72c4.1-2.83,8.2-5.67,12.31-8.5.76-.52,1.52-1,1.81-1.95.11-.35.16-.73.24-1.09l1.41-6.51c1-4.61,2-9.23,3-13.84.68-3.14-4.14-4.48-4.82-1.33-1.35,6.23-2.7,12.47-4.05,18.7l-.59,2.73,1.15-1.49c-5.05,3.49-10.1,6.98-15.15,10.47l1.93-.25c-5.89-1.77-11.77-3.54-17.66-5.31-1.32-.4-2.69.47-3.08,1.75-2.26,7.53-4.52,15.05-6.79,22.58l-.98,3.26c-.93,3.09,3.9,4.41,4.82,1.33h0Z"/><circle class="cls-2" cx="67.19" cy="119.23" r="24"/><path class="cls-6" d="M46.31,124.32c-1.53-6.4-.09-13.3,4.03-18.47s10.89-8.36,17.72-8.12c6.36.23,12.64,3.48,16.4,8.65,4.03,5.55,5.29,12.66,3.27,19.23-2.22,7.21-8.17,12.65-15.43,14.5-3.12.8-1.8,5.62,1.33,4.82,7.85-2,14.57-7.56,17.81-15.03s2.92-16.59-1.26-23.89-11.15-11.85-19.06-12.98-16.71,1.52-22.62,7.42c-6.59,6.57-9.16,16.2-7.01,25.21.75,3.13,5.57,1.8,4.82-1.33h0Z"/><circle class="cls-2" cx="79.97" cy="170.85" r="14.35"/><path class="cls-6" d="M74.86,160.13c3.78-1.59,7.9-1.49,11.42.71,2.65,1.64,4.49,4.31,5.22,7.32,1.5,6.22-2.5,12.62-8.68,14.2-3.55.9-7.49.04-10.35-2.31-1.04-.86-2.52-1.02-3.54,0-.88.88-1.05,2.67,0,3.54,3.81,3.13,8.53,4.62,13.44,3.93,4.28-.6,8.21-2.88,10.86-6.29,5.63-7.24,4.36-17.98-2.9-23.62-4.74-3.68-11.24-4.63-16.79-2.29-1.24.52-2.14,1.65-1.75,3.08.32,1.17,1.82,2.27,3.08,1.75h0Z"/><path class="cls-6" d="M81.29,201.26c3.89-3.72,9.83-4.46,14.45-1.66,4.05,2.46,6.31,7.28,5.55,11.96-.21,1.33.34,2.69,1.75,3.08,1.19.33,2.86-.41,3.08-1.75,1.12-6.94-1.74-13.91-7.85-17.61-6.55-3.97-15.03-2.81-20.51,2.44-2.33,2.23,1.21,5.76,3.54,3.54h0Z"/><circle class="cls-2" cx="89.58" cy="209.73" r="14.35"/></svg>