<?xml version="1.0" encoding="UTF-8"?><svg id="Layer_1" xmlns="http://www.w3.org/2000/svg" viewBox="0 0 374.02 215.98"><defs><style>.cls-1{fill:#e6f3e8;opacity:.8;stroke-width:0px;}.cls-2{fill:none;stroke-width:5px;}.cls-2,.cls-3{stroke:#e0e0e0;stroke-miterlimit:10;}.cls-3{fill:#e0e0e0;stroke-width:2px;}</style></defs><rect class="cls-2" x="2.53" y="2.56" width="368.96" height="210.87" rx="12" ry="12"/><rect class="cls-3" x="19.48" y="18.41" width="23.09" height="8.22" rx="4.11" ry="4.11"/><rect class="cls-3" x="55.68" y="18.39" width="58.5" height="8.22" rx="4.11" ry="4.11"/><rect class="cls-3" x="124.59" y="18.37" width="42.07" height="8.22" rx="4.11" ry="4.11"/><rect class="cls-3" x="177.08" y="18.36" width="46.76" height="8.22" rx="4.11" ry="4.11"/><rect class="cls-3" x="237.09" y="18.34" width="36.39" height="8.22" rx="4.11" ry="4.11"/><rect class="cls-3" x="286.74" y="18.32" width="60.07" height="8.22" rx="4.11" ry="4.11"/><rect class="cls-1" x="19.49" y="48.54" width="23.09" height="8.22" rx="4.11" ry="4.11"/><rect class="cls-1" x="19.5" y="71.24" width="23.09" height="8.22" rx="4.11" ry="4.11"/><rect class="cls-1" x="19.5" y="91.93" width="23.09" height="8.22" rx="4.11" ry="4.11"/><rect class="cls-1" x="19.51" y="112.81" width="23.09" height="8.22" rx="4.11" ry="4.11"/><rect class="cls-1" x="19.52" y="135.51" width="23.09" height="8.22" rx="4.11" ry="4.11"/><rect class="cls-1" x="19.53" y="158.21" width="23.09" height="8.22" rx="4.11" ry="4.11"/><rect class="cls-1" x="19.53" y="178.99" width="23.09" height="8.22" rx="4.11" ry="4.11"/><rect class="cls-1" x="55.69" y="48.52" width="58.5" height="8.22" rx="4.11" ry="4.11"/><rect class="cls-1" x="124.6" y="48.5" width="42.07" height="8.22" rx="4.11" ry="4.11"/><rect class="cls-1" x="177.09" y="48.49" width="46.76" height="8.22" rx="4.11" ry="4.11"/><rect class="cls-1" x="237.1" y="48.47" width="36.39" height="8.22" rx="4.11" ry="4.11"/><rect class="cls-1" x="286.75" y="48.45" width="60.07" height="8.22" rx="4.11" ry="4.11"/><rect class="cls-1" x="55.69" y="71.22" width="58.5" height="8.22" rx="4.11" ry="4.11"/><rect class="cls-1" x="124.61" y="71.2" width="42.07" height="8.22" rx="4.11" ry="4.11"/><rect class="cls-1" x="177.1" y="71.18" width="46.76" height="8.22" rx="4.11" ry="4.11"/><rect class="cls-1" x="237.11" y="71.16" width="36.39" height="8.22" rx="4.11" ry="4.11"/><rect class="cls-1" x="286.76" y="71.14" width="60.07" height="8.22" rx="4.11" ry="4.11"/><rect class="cls-1" x="55.7" y="91.92" width="58.5" height="8.22" rx="4.11" ry="4.11"/><rect class="cls-1" x="124.62" y="91.9" width="42.07" height="8.22" rx="4.11" ry="4.11"/><rect class="cls-1" x="177.1" y="91.88" width="46.76" height="8.22" rx="4.11" ry="4.11"/><rect class="cls-1" x="237.12" y="91.86" width="36.39" height="8.22" rx="4.11" ry="4.11"/><rect class="cls-1" x="286.77" y="91.84" width="60.07" height="8.22" rx="4.11" ry="4.11"/><rect class="cls-1" x="55.71" y="112.8" width="58.5" height="8.22" rx="4.11" ry="4.11"/><rect class="cls-1" x="124.63" y="112.78" width="42.07" height="8.22" rx="4.11" ry="4.11"/><rect class="cls-1" x="177.11" y="112.76" width="46.76" height="8.22" rx="4.11" ry="4.11"/><rect class="cls-1" x="237.13" y="112.74" width="36.39" height="8.22" rx="4.11" ry="4.11"/><rect class="cls-1" x="286.77" y="112.72" width="60.07" height="8.22" rx="4.11" ry="4.11"/><rect class="cls-1" x="55.71" y="135.49" width="58.5" height="8.22" rx="4.11" ry="4.11"/><rect class="cls-1" x="124.63" y="135.47" width="42.07" height="8.22" rx="4.11" ry="4.11"/><rect class="cls-1" x="177.12" y="135.45" width="46.76" height="8.22" rx="4.11" ry="4.11"/><rect class="cls-1" x="237.13" y="135.44" width="36.39" height="8.22" rx="4.11" ry="4.11"/><rect class="cls-1" x="286.78" y="135.42" width="60.07" height="8.22" rx="4.11" ry="4.11"/><rect class="cls-1" x="55.72" y="158.19" width="58.5" height="8.22" rx="4.11" ry="4.11"/><rect class="cls-1" x="124.64" y="158.17" width="42.07" height="8.22" rx="4.11" ry="4.11"/><rect class="cls-1" x="177.12" y="158.15" width="46.76" height="8.22" rx="4.11" ry="4.11"/><rect class="cls-1" x="237.14" y="158.13" width="36.39" height="8.22" rx="4.11" ry="4.11"/><rect class="cls-1" x="286.79" y="158.11" width="60.07" height="8.22" rx="4.11" ry="4.11"/><rect class="cls-1" x="55.73" y="178.98" width="58.5" height="8.22" rx="4.11" ry="4.11"/><rect class="cls-1" x="124.65" y="178.96" width="42.07" height="8.22" rx="4.11" ry="4.11"/><rect class="cls-1" x="177.13" y="178.94" width="46.76" height="8.22" rx="4.11" ry="4.11"/><rect class="cls-1" x="237.15" y="178.92" width="36.39" height="8.22" rx="4.11" ry="4.11"/><rect class="cls-1" x="286.79" y="178.9" width="60.07" height="8.22" rx="4.11" ry="4.11"/></svg>